<svg width="261" height="261" viewBox="0 0 261 261" fill="none" xmlns="http://www.w3.org/2000/svg">
<path d="M88.4064 25.4616C71.6803 34.3476 83.1496 -9.27482 35.8386 42.9105C-6.53414 89.9259 -9.08288 153.905 16.4045 198.174C48.7416 254.076 111.664 267.647 155.152 258.276C186.851 251.329 204.055 239.696 212.498 233.395C228.587 221.278 204.693 219.662 212.498 206.576C219.348 195.104 243.242 184.764 247.225 168.285C251.366 151.805 222.375 147.604 225.242 132.417C227.791 118.684 265.225 98.8119 260.606 82.1708C255.986 65.5296 219.348 86.0483 211.383 75.8697C203.578 65.8527 247.225 20.4531 234.003 8.98196C217.436 -5.07416 168.692 38.2252 156.267 35.8017C143.841 33.3782 152.762 1.71155 134.921 0.0959047C117.08 -1.51974 102.902 17.7065 88.4064 25.4616Z" fill="#893BFF" fill-opacity="0.82"/>
</svg>
